<?xml version="1.0" standalone="no"?>
<!DOCTYPE svg PUBLIC "-//W3C//DTD SVG 20010904//EN"
 "http://www.w3.org/TR/2001/REC-SVG-20010904/DTD/svg10.dtd">
<svg version="1.0" xmlns="http://www.w3.org/2000/svg"
 width="2976.000000pt" height="2976.000000pt" viewBox="0 0 2976.000000 2976.000000"
 preserveAspectRatio="xMidYMid meet">
<metadata>
Created by potrace 1.14, written by Peter Selinger 2001-2017
</metadata>
<g transform="translate(0.000000,2976.000000) scale(0.100000,-0.100000)"
fill="#000000" stroke="none">
<path d="M2887 18874 c-1 -1 -40 -5 -87 -8 -47 -4 -112 -11 -145 -16 -33 -5
-76 -12 -95 -14 -44 -6 -74 -12 -180 -37 -277 -64 -545 -171 -795 -317 -33
-19 -69 -40 -80 -46 -26 -15 -109 -69 -115 -76 -3 -3 -39 -30 -80 -60 -190
-137 -420 -364 -564 -555 -37 -49 -74 -98 -81 -107 -7 -9 -19 -27 -26 -40 -6
-13 -15 -25 -19 -28 -21 -16 -204 -350 -224 -407 -3 -10 -10 -25 -15 -33 -11
-18 -76 -181 -77 -195 0 -5 -4 -17 -7 -25 -21 -51 -87 -288 -102 -367 -51
-272 -70 -571 -49 -788 3 -38 8 -88 10 -110 2 -22 6 -59 8 -83 2 -23 7 -55 11
-69 3 -15 8 -43 11 -63 2 -19 7 -43 10 -52 3 -10 7 -30 10 -45 3 -16 16 -71
30 -123 15 -52 28 -102 29 -110 2 -8 13 -39 24 -67 12 -29 18 -53 15 -53 -4 0
-2 -6 3 -12 6 -7 19 -38 31 -68 45 -123 185 -410 205 -418 4 -2 7 -8 7 -14 0
-5 13 -29 30 -53 16 -24 30 -48 30 -53 0 -6 4 -12 8 -14 5 -1 42 -52 83 -113
42 -60 107 -154 145 -208 38 -55 73 -107 79 -118 5 -10 13 -19 17 -19 5 0 8
-7 8 -15 0 -8 3 -15 8 -15 4 0 18 -18 32 -40 13 -22 28 -40 32 -40 4 0 8 -4 8
-9 0 -8 176 -268 207 -306 4 -6 28 -39 53 -75 24 -36 60 -87 79 -115 19 -27
60 -86 90 -130 31 -44 59 -84 64 -90 4 -5 51 -73 105 -150 53 -77 120 -173
147 -212 28 -40 60 -87 72 -105 13 -18 26 -37 31 -43 4 -5 37 -53 73 -105 37
-52 82 -117 100 -144 19 -26 39 -55 44 -64 6 -9 18 -25 28 -36 9 -11 17 -23
17 -26 0 -4 11 -20 25 -36 14 -16 25 -34 25 -41 0 -6 4 -13 8 -15 8 -3 42 -50
180 -251 89 -128 211 -302 220 -313 5 -5 15 -20 21 -33 7 -12 19 -30 26 -39 8
-9 91 -127 185 -262 93 -134 179 -248 191 -252 26 -10 55 5 77 40 9 15 53 78
97 141 44 62 85 120 90 129 12 18 16 24 53 74 15 20 61 85 102 145 41 59 77
110 80 113 4 3 9 12 13 20 4 8 52 78 107 155 54 77 104 147 110 155 19 28 171
245 186 265 24 34 68 97 115 165 25 36 74 106 109 155 35 50 77 110 94 135 17
25 34 50 38 55 8 10 117 165 138 195 28 42 130 186 138 196 5 5 15 21 22 35 7
13 20 29 29 36 9 7 12 13 6 13 -6 0 -5 4 1 8 7 4 50 63 98 132 47 69 93 134
102 145 8 11 46 65 84 120 38 55 72 105 77 110 4 6 22 30 38 55 29 43 34 50
63 84 6 8 12 18 12 21 0 8 103 149 112 153 5 2 8 10 8 18 0 8 5 14 10 14 6 0
10 7 10 15 0 8 5 15 10 15 6 0 10 6 10 14 0 8 4 16 8 18 8 3 94 124 112 158
25 47 -6 79 -92 95 -13 3 -34 7 -48 11 -58 13 -116 26 -135 29 -11 1 -40 8
-65 15 -25 7 -52 14 -60 15 -8 1 -45 10 -81 18 -37 9 -78 18 -90 21 -13 2 -53
12 -89 21 -36 9 -75 17 -87 18 -13 0 -23 5 -23 10 0 4 -3 6 -8 3 -4 -2 -34 2
-67 10 -33 8 -71 17 -85 20 -14 3 -52 11 -85 19 -33 8 -94 21 -135 30 -77 17
-93 21 -132 31 -13 3 -34 7 -48 10 -14 3 -43 10 -65 16 -22 5 -47 11 -55 13
-36 8 -167 36 -185 41 -11 3 -31 7 -45 10 -14 2 -36 7 -50 11 -37 9 -43 11
-70 17 -14 3 -36 8 -50 11 -14 3 -36 8 -50 11 -25 5 -118 26 -195 44 -83 20
-256 60 -278 64 -12 2 -53 12 -92 21 -38 9 -81 19 -95 21 -14 3 -32 7 -40 9
-8 2 -29 7 -46 10 -82 13 -237 71 -359 132 -215 108 -466 343 -571 533 -10 19
-22 37 -25 40 -3 3 -22 40 -43 82 -52 112 -111 292 -122 378 -1 8 -5 35 -10
60 -10 57 -11 339 -1 405 17 110 58 261 94 345 50 120 166 320 185 320 4 0 8
7 8 16 0 27 239 255 335 319 83 55 241 140 275 147 8 2 17 5 20 8 15 17 235
73 340 87 66 9 285 9 361 1 375 -43 746 -260 986 -578 129 -172 234 -423 269
-645 10 -61 11 -362 2 -430 -12 -93 -48 -227 -88 -329 -39 -99 -134 -278 -151
-284 -5 -2 -9 -8 -9 -14 0 -8 -45 -69 -85 -114 -61 -70 -165 -168 -230 -216
-44 -33 -88 -66 -97 -74 -33 -26 -17 -58 32 -68 14 -2 32 -7 40 -10 8 -3 29
-7 45 -10 49 -8 88 -17 95 -21 4 -2 22 -7 41 -10 19 -3 61 -12 94 -20 33 -8
74 -17 92 -20 18 -3 45 -10 60 -16 15 -6 29 -10 31 -10 1 1 3 1 5 0 1 0 11 -2
22 -3 11 -2 83 -18 160 -35 77 -18 149 -35 160 -37 11 -2 31 -6 45 -10 14 -3
39 -8 55 -11 17 -3 38 -9 48 -14 9 -5 17 -8 17 -5 0 3 15 0 33 -5 99 -29 144
-28 171 4 11 14 29 35 39 46 9 12 17 25 17 30 0 5 3 11 8 13 26 11 182 291
245 438 8 19 22 51 31 72 9 20 16 38 16 41 0 3 5 18 12 34 6 15 12 34 14 40 1
7 11 41 22 75 36 112 74 276 87 382 3 17 7 48 9 68 77 592 -84 1240 -433 1748
-56 82 -104 144 -113 148 -5 2 -8 7 -8 11 0 26 -276 302 -381 383 -26 19 -53
40 -60 47 -26 22 -108 81 -112 81 -3 0 -31 17 -63 39 -173 114 -506 263 -660
296 -10 2 -57 13 -103 25 -47 12 -100 23 -119 26 -19 2 -37 6 -41 8 -3 2 -35
7 -71 11 -36 4 -74 9 -85 12 -20 5 -423 11 -428 7z"/>
<path d="M19260 17347 c-3 -3 -34 -8 -70 -12 -94 -11 -90 -10 -155 -29 -125
-36 -305 -112 -305 -128 0 -5 -4 -6 -10 -3 -5 3 -10 1 -10 -4 0 -6 -5 -11 -11
-11 -33 0 -299 -222 -299 -249 0 -6 -6 -11 -12 -11 -27 -1 -172 -232 -227
-360 -22 -52 -68 -200 -75 -245 -27 -161 -28 -385 -2 -505 3 -14 8 -37 12 -52
3 -15 5 -30 5 -33 0 -14 69 -199 78 -208 6 -6 11 -17 11 -25 0 -8 9 -27 21
-43 11 -16 18 -29 15 -29 -10 0 108 -168 164 -232 30 -35 83 -88 119 -118 35
-30 69 -61 77 -67 7 -7 17 -13 21 -13 5 0 19 -9 31 -20 25 -24 59 -43 195
-111 32 -17 152 -60 192 -70 22 -5 49 -12 60 -14 221 -54 545 -31 740 50 17 7
50 21 75 31 25 10 52 23 60 30 8 7 19 12 23 12 10 0 163 98 192 122 95 82 223
221 276 301 64 98 145 259 155 310 2 9 9 29 15 45 7 16 13 36 14 44 1 8 10 56
20 105 19 94 24 301 11 405 -9 70 -49 229 -76 298 -62 161 -183 349 -295 457
-100 96 -274 225 -304 225 -6 0 -11 5 -11 10 0 6 -4 10 -10 10 -5 0 -34 11
-64 25 -30 14 -57 25 -60 25 -2 0 -17 5 -33 12 -15 6 -32 12 -38 14 -110 32
-124 36 -235 53 -58 9 -272 15 -280 8z m260 -517 c0 -3 12 -6 28 -7 73 -5 220
-69 308 -134 64 -47 161 -145 169 -170 4 -11 10 -19 15 -19 5 0 19 -18 30 -40
11 -22 29 -58 40 -80 11 -21 20 -45 20 -53 0 -7 4 -17 9 -23 23 -25 50 -193
45 -282 -7 -123 -24 -200 -67 -292 -17 -36 -31 -68 -31 -71 -2 -16 -118 -162
-155 -197 -98 -89 -276 -176 -406 -198 -53 -9 -209 -9 -262 0 -124 21 -280 95
-388 185 -32 26 -114 124 -146 174 -40 61 -94 190 -104 248 -33 180 -23 322
33 474 41 112 106 210 194 292 48 44 150 113 168 113 5 0 10 5 10 10 0 6 8 10
18 10 10 0 23 5 30 12 7 7 12 8 12 4 0 -5 6 -3 14 3 13 11 30 17 86 27 14 2
39 8 55 13 31 9 275 10 275 1z"/>
<path d="M10082 17293 c-19 -21 -19 -47 -19 -1259 0 -1188 1 -1238 19 -1256
10 -10 26 -18 36 -19 38 -2 158 -1 167 1 6 1 15 1 20 0 12 -2 218 -2 225 1 3
1 9 1 14 0 22 -4 45 12 53 37 5 15 8 209 8 431 l-1 404 45 41 c24 23 76 71
115 108 39 37 74 68 77 68 4 0 29 -25 55 -57 27 -31 54 -61 59 -67 6 -6 44
-51 85 -101 41 -49 77 -92 80 -95 3 -3 25 -30 50 -60 42 -51 81 -97 105 -124
6 -6 44 -51 85 -101 41 -49 77 -92 80 -95 5 -4 160 -188 235 -279 41 -49 96
-101 108 -102 7 0 33 -4 60 -8 26 -4 47 -5 47 -2 0 7 102 4 133 -3 9 -2 14 0
11 5 -5 9 24 6 63 -6 7 -2 15 0 17 4 3 5 24 5 46 1 25 -4 37 -4 33 2 -3 6 4 7
18 2 13 -4 29 -7 34 -6 44 5 134 4 143 -2 6 -3 13 -2 17 4 4 6 10 8 15 5 10
-6 26 16 26 37 -1 9 -12 29 -26 45 -14 15 -50 57 -80 93 -30 35 -62 71 -70 80
-8 9 -37 42 -65 74 -27 32 -61 70 -73 85 -54 60 -74 83 -197 226 -70 83 -133
155 -139 160 -6 6 -36 39 -66 75 -30 36 -57 67 -60 70 -3 3 -30 34 -60 70 -30
36 -60 69 -66 75 -5 5 -39 44 -75 85 -35 41 -72 84 -82 95 -10 11 -33 37 -50
58 -18 21 -44 52 -59 70 l-28 31 38 34 c20 18 91 85 157 147 66 62 136 127
155 145 31 28 212 198 320 300 20 19 90 85 155 145 65 61 163 153 217 206 91
87 99 98 89 118 -12 21 -15 21 -336 21 -380 0 -347 9 -484 -128 -70 -69 -715
-702 -907 -889 -23 -24 -44 -43 -46 -43 -2 0 -3 230 -3 511 1 477 0 512 -17
531 -17 20 -28 21 -252 22 -229 1 -235 1 -254 -21z"/>
<path d="M12817 17312 c-20 -3 -32 -12 -40 -31 -9 -21 -12 -337 -11 -1247 0
-670 4 -1229 8 -1241 8 -25 44 -39 76 -30 11 3 20 2 20 -1 0 -6 53 -8 65 -2 6
3 44 3 48 0 7 -6 66 -5 89 1 15 4 30 4 32 1 2 -4 39 -6 82 -6 126 3 119 -17
121 346 1 166 2 310 2 319 1 15 17 17 137 15 75 0 138 2 140 6 2 3 17 3 32 0
35 -9 375 -7 390 2 7 4 12 2 12 -4 0 -6 4 -9 8 -6 5 3 37 8 73 11 224 21 441
119 597 271 64 63 182 227 182 253 0 7 7 23 16 36 9 14 13 25 9 25 -4 0 -2 6
4 13 6 8 12 22 14 33 2 10 7 26 11 34 27 63 40 313 21 425 -17 103 -78 257
-135 341 -16 25 -30 47 -30 50 0 5 -14 20 -98 105 -75 77 -99 99 -110 99 -5 0
-18 9 -30 20 -25 24 -174 100 -195 100 -9 0 -18 4 -21 8 -4 8 -51 20 -136 37
-14 3 -47 8 -75 12 -51 6 -1257 11 -1308 5z m1326 -531 c80 -27 155 -81 210
-152 23 -29 58 -106 61 -134 1 -12 5 -26 9 -32 8 -12 6 -173 -2 -188 -3 -5 -6
-15 -7 -22 -11 -71 -128 -219 -199 -252 -16 -7 -37 -17 -46 -22 -43 -21 -162
-27 -498 -26 l-365 2 0 417 c-1 364 1 418 14 420 8 2 188 3 400 3 286 -1 395
-4 423 -14z"/>
<path d="M15394 17297 l-22 -17 0 -1240 c0 -1007 3 -1242 13 -1257 12 -16 35
-18 247 -20 211 -1 236 1 258 17 l23 18 0 998 c0 550 3 1001 8 1004 5 4 1080
5 1111 1 5 -1 13 -1746 9 -1926 -1 -11 -1 -33 -2 -50 -1 -52 33 -68 143 -67
51 0 98 1 103 2 6 1 12 1 15 0 15 -6 69 -5 92 1 14 4 29 5 32 1 8 -8 76 -9 76
-1 0 3 10 4 23 2 14 -3 29 3 40 15 17 18 18 88 18 1257 0 1234 0 1238 -20
1259 -21 20 -27 20 -1083 21 -997 0 -1063 -1 -1084 -18z"/>
<path d="M21250 17308 c-10 -4 -23 -16 -29 -26 -7 -13 -10 -426 -10 -1247 l0
-1227 22 -22 23 -23 1553 0 c1431 0 1554 1 1573 17 21 16 21 19 21 1246 0 676
-3 1239 -7 1251 -4 12 -17 25 -29 29 -12 4 -116 8 -232 9 -170 1 -215 -2 -237
-14 l-28 -15 0 -1006 0 -1006 -397 1 -398 0 -1 1002 c-1 946 -2 1002 -19 1019
-16 16 -40 18 -246 18 -209 0 -229 -1 -248 -18 -21 -19 -21 -20 -21 -1014 0
-547 -2 -998 -6 -1001 -7 -8 -784 -9 -785 -2 -1 3 -2 455 -3 1003 -1 921 -2
999 -18 1014 -15 15 -45 17 -238 18 -121 1 -229 -2 -240 -6z"/>
<path d="M28083 17312 c-23 -3 -34 -22 -111 -197 -43 -98 -62 -140 -116 -258
-20 -44 -36 -80 -36 -82 0 -1 -16 -38 -37 -81 -20 -44 -37 -83 -39 -89 -1 -5
-23 -54 -48 -108 -25 -54 -46 -100 -46 -102 0 -2 -18 -43 -41 -92 -22 -48 -52
-115 -66 -148 -14 -33 -32 -73 -41 -90 -9 -16 -17 -32 -17 -35 -4 -22 -31 -80
-37 -80 -4 0 -8 -8 -8 -18 0 -10 -4 -22 -8 -27 -4 -6 -27 -55 -51 -110 -24
-55 -56 -127 -71 -160 -15 -33 -35 -76 -43 -95 -8 -19 -29 -64 -45 -100 -16
-36 -44 -99 -62 -140 -18 -41 -50 -112 -71 -158 -22 -46 -39 -85 -39 -87 0 -2
-13 -32 -29 -67 -78 -171 -84 -188 -71 -208 8 -13 50 -15 267 -16 148 -1 267
3 279 8 25 12 35 28 70 123 14 39 30 76 36 83 6 6 8 12 5 12 -3 0 3 21 14 48
11 26 24 56 29 67 15 36 23 60 27 79 2 11 10 27 18 35 13 15 15 20 15 40 0 9
1254 11 1268 2 7 -5 159 -386 166 -416 5 -25 40 -64 64 -73 15 -5 136 -8 270
-8 320 1 307 -14 196 234 -13 29 -24 54 -24 56 0 2 -10 25 -22 52 -12 27 -23
51 -23 54 -3 9 -25 61 -50 116 -14 30 -25 56 -25 59 0 2 -13 32 -29 67 -15 35
-52 119 -80 188 -29 69 -56 132 -61 140 -4 9 -33 76 -65 150 -31 74 -63 148
-71 164 -8 16 -14 35 -14 43 0 7 -5 13 -10 13 -6 0 -9 3 -8 8 1 4 -3 18 -9 32
-46 111 -68 161 -84 197 -20 44 -41 94 -44 103 -1 3 -8 21 -17 40 -38 85 -52
116 -54 125 -1 6 -14 37 -29 70 -15 33 -33 74 -40 90 -54 127 -136 317 -151
350 -9 22 -18 42 -19 45 0 3 -11 27 -23 54 -12 27 -22 52 -22 56 0 4 -9 15
-20 25 -19 17 -43 19 -298 19 -152 1 -287 0 -299 -2z m323 -567 c14 -33 29
-69 34 -80 5 -11 32 -81 60 -155 28 -74 60 -154 71 -177 10 -24 19 -46 19 -50
0 -7 70 -191 91 -238 4 -11 18 -45 29 -75 22 -58 37 -94 51 -122 5 -10 9 -27
9 -37 0 -11 5 -23 10 -26 6 -3 10 -12 10 -19 0 -12 -57 -13 -87 -2 -7 3 -13 2
-13 -2 0 -9 -103 -8 -118 1 -6 4 -13 4 -15 0 -6 -10 -129 -9 -146 1 -6 4 -17
4 -24 -1 -7 -5 -41 -7 -77 -6 -78 4 -69 3 -150 3 -36 0 -73 0 -82 0 -10 0 -38
0 -62 -1 -24 -1 -48 1 -55 5 -6 4 -11 3 -11 -2 0 -6 -9 -8 -19 -5 -18 5 -18 8
-6 41 7 21 22 57 33 82 11 25 50 122 87 215 37 94 73 184 81 200 7 17 29 73
50 125 20 52 40 99 45 105 5 5 9 15 9 22 0 8 9 33 20 55 11 23 20 45 20 49 0
3 8 24 17 45 9 22 17 41 18 44 27 90 66 92 101 5z"/>
<path d="M7042 17298 c-21 -21 -16 -33 76 -174 6 -10 17 -28 22 -39 6 -11 23
-39 38 -62 40 -63 146 -236 151 -248 2 -5 14 -23 25 -40 12 -16 26 -39 33 -50
6 -11 45 -75 87 -142 42 -67 76 -126 76 -132 0 -6 5 -11 10 -11 6 0 10 -7 10
-15 0 -8 5 -15 10 -15 6 0 10 -4 10 -9 0 -8 131 -224 171 -283 11 -15 19 -30
19 -33 0 -4 11 -21 25 -39 14 -18 25 -36 25 -39 0 -5 182 -302 273 -447 l35
-55 -36 -65 c-20 -36 -40 -66 -44 -68 -4 -2 -8 -7 -8 -12 0 -12 -151 -274
-162 -281 -5 -3 -8 -8 -7 -10 3 -4 -42 -87 -70 -129 -31 -45 -51 -98 -45 -114
6 -16 22 -22 81 -29 18 -2 30 0 27 5 -5 8 26 4 63 -7 7 -2 15 -1 17 4 3 4 22
6 43 3 21 -2 43 -3 48 -3 6 0 39 0 75 1 36 0 81 1 100 1 19 0 50 1 68 1 25 0
38 8 56 32 19 25 123 206 231 401 12 22 32 58 45 80 13 22 36 65 53 95 16 30
33 60 37 65 4 6 27 46 50 90 24 44 47 85 52 91 4 6 19 31 32 55 13 24 36 67
51 94 16 28 33 59 39 70 6 11 13 22 16 25 3 3 12 18 20 35 8 16 39 73 69 125
30 52 65 115 78 140 13 25 35 63 48 85 14 22 32 56 42 75 9 19 19 37 22 40 5
4 18 27 65 115 6 11 13 22 16 25 3 3 15 24 27 48 18 34 140 252 190 337 6 11
21 40 34 65 12 25 25 47 28 50 3 3 11 14 17 25 47 88 60 111 65 115 3 3 11 20
18 38 8 17 17 32 21 32 15 0 20 49 8 74 l-11 26 -271 0 c-197 -1 -275 -4 -287
-13 -17 -14 -89 -145 -89 -163 0 -7 -3 -14 -7 -16 -10 -4 -53 -90 -53 -105 0
-6 -3 -13 -7 -15 -10 -4 -219 -420 -215 -426 2 -3 0 -8 -5 -11 -4 -3 -44 -78
-88 -166 -44 -88 -84 -163 -90 -167 -5 -4 -7 -8 -3 -8 3 0 -24 -60 -62 -132
-48 -95 -73 -134 -87 -136 -16 -2 -32 17 -74 90 -29 51 -61 105 -69 119 -8 14
-34 59 -58 100 -23 41 -47 81 -52 89 -44 69 -380 654 -380 661 0 5 -4 9 -10 9
-5 0 -10 5 -10 11 0 6 -13 30 -30 54 -16 24 -30 46 -30 49 0 11 -92 161 -103
168 -21 14 -572 9 -585 -4z"/>
<path d="M24778 17288 c-15 -28 -19 -408 -5 -451 5 -15 17 -31 26 -35 9 -5
199 -8 424 -8 224 1 408 -1 408 -4 1 -3 3 -452 4 -998 1 -920 2 -994 18 -1009
15 -15 45 -17 249 -18 204 -1 233 1 253 17 l22 17 1 988 c0 543 1 993 1 998 1
6 148 10 421 10 384 0 421 2 437 18 15 15 17 42 18 224 1 203 -4 250 -28 265
-7 4 -512 8 -1124 8 l-1112 0 -13 -22z"/>
<path d="M26949 13890 c-1 -14 -2 -47 -2 -75 l-1 -50 69 0 70 0 1 73 c1 39 -2
73 -5 73 -3 1 -34 2 -68 3 -61 2 -63 1 -64 -24z"/>
<path d="M27235 13910 c-1 -3 -2 -36 -1 -75 l1 -70 68 -3 c40 -1 67 2 68 8 0
5 1 26 1 45 0 19 -1 50 -1 68 l-1 33 -66 0 c-36 0 -67 -3 -69 -6z"/>
<path d="M8788 13695 c-2 -2 -21 -6 -43 -9 -45 -7 -79 -13 -82 -16 -2 -2 -6
-3 -10 -4 -27 -4 -127 -64 -160 -96 -59 -55 -128 -163 -138 -219 -2 -9 -4 -16
-5 -16 -1 0 -3 -9 -6 -20 -11 -53 -16 -96 -18 -163 -9 -282 117 -493 341 -574
74 -27 237 -34 306 -13 26 8 47 12 47 9 0 -2 28 10 62 27 128 65 223 192 263
354 18 73 24 228 11 300 -42 238 -186 391 -406 431 -30 5 -158 12 -162 9z
m182 -148 c59 -23 90 -40 90 -49 0 -4 6 -8 13 -8 13 -1 63 -64 95 -121 37 -67
55 -169 49 -277 -7 -108 -10 -128 -20 -138 -4 -4 -7 -13 -7 -21 0 -46 -87
-165 -151 -206 -61 -40 -194 -60 -279 -43 -144 29 -259 166 -286 341 -20 128
7 286 64 375 52 82 136 146 207 157 17 3 32 6 33 8 9 9 161 -5 192 -18z"/>
<path d="M11308 13695 c-2 -1 -25 -5 -53 -8 -61 -6 -73 -10 -153 -49 -128 -62
-217 -181 -260 -348 -8 -35 -9 -257 0 -305 11 -57 14 -67 25 -95 6 -14 19 -44
28 -67 9 -24 21 -43 26 -43 5 0 9 -6 9 -13 0 -24 109 -126 163 -154 163 -82
370 -82 520 2 94 53 205 196 222 286 3 12 10 38 17 58 13 39 17 251 6 316 -37
212 -200 381 -398 410 -49 7 -148 14 -152 10z m147 -139 c47 -11 133 -67 169
-111 85 -103 118 -262 91 -435 -10 -64 -8 -57 -23 -95 -23 -57 -46 -93 -97
-148 -26 -28 -118 -74 -170 -85 -88 -17 -188 -1 -264 43 -60 35 -136 125 -146
173 -2 11 -8 29 -14 40 -24 46 -35 224 -18 297 5 22 10 45 11 50 1 6 5 16 9
23 5 6 5 17 2 22 -3 6 -2 10 3 10 6 0 12 11 16 23 9 39 85 125 132 153 25 15
64 32 87 39 42 13 155 13 212 1z"/>
<path d="M18168 13695 c-2 -2 -22 -5 -45 -7 -50 -6 -173 -48 -173 -60 0 -4 -7
-8 -15 -8 -9 0 -44 -29 -79 -64 -138 -138 -183 -325 -143 -586 2 -8 5 -19 8
-25 4 -5 9 -23 13 -40 25 -102 130 -243 208 -278 16 -6 28 -15 28 -19 0 -5 70
-33 77 -30 1 0 22 -6 47 -13 55 -17 206 -16 263 1 24 7 43 10 43 7 0 -3 8 2
19 11 10 9 28 18 40 19 11 1 21 4 21 8 0 4 8 10 18 13 28 9 111 90 143 140 56
89 90 199 95 311 2 39 4 72 5 75 1 3 1 8 0 12 0 4 -3 33 -7 64 -13 125 -75
260 -154 336 -82 79 -204 127 -340 132 -38 2 -71 2 -72 1z m149 -139 c89 -20
181 -95 223 -181 14 -28 25 -52 26 -55 0 -3 6 -25 13 -50 17 -59 17 -276 0
-297 -1 -2 -2 -6 -3 -10 -27 -120 -140 -248 -235 -268 -9 -2 -34 -7 -56 -12
-105 -23 -236 13 -312 86 -35 33 -83 101 -87 123 -2 7 -8 26 -14 41 -26 63
-35 212 -18 307 10 51 36 119 65 165 28 45 98 115 115 115 7 0 18 6 24 13 30
29 174 43 259 23z"/>
<path d="M7443 13662 c-24 -2 -43 -8 -44 -15 -1 -15 -1 -1060 0 -1069 1 -3 33
-8 71 -10 l70 -3 1 30 c0 17 1 235 2 485 l2 455 283 0 c155 0 282 2 283 5 7
36 2 113 -8 117 -14 6 -594 10 -660 5z"/>
<path d="M9809 13650 c-1 -16 -4 -117 -13 -490 -7 -266 -10 -305 -31 -375 -26
-86 -53 -106 -138 -100 l-57 3 1 -57 1 -57 42 -11 c149 -40 262 55 302 252 8
39 15 193 29 628 1 48 5 91 9 94 3 3 93 6 201 7 l195 1 0 -481 c0 -377 3 -483
13 -486 10 -4 111 -3 127 1 4 1 5 919 1 1057 l-1 30 -340 0 c-298 0 -340 -2
-341 -16z"/>
<path d="M12244 13662 l-41 -3 0 -544 c1 -300 3 -546 6 -546 3 -1 121 -2 261
-3 173 -2 277 2 325 11 73 14 155 43 155 56 0 4 5 7 10 7 16 0 59 50 83 95 17
32 21 61 23 138 2 85 -1 103 -20 137 -38 68 -84 111 -139 131 l-36 13 37 25
c70 47 109 114 111 188 0 23 2 46 3 50 2 13 -13 65 -30 98 -35 72 -133 129
-241 141 -66 7 -435 11 -507 6z m548 -145 c53 -24 79 -67 83 -135 2 -32 -2
-71 -10 -89 -12 -28 -64 -76 -86 -79 -5 -1 -10 -2 -11 -3 -11 -8 -108 -14
-248 -15 l-165 -1 -2 172 -1 171 201 -2 c161 -2 209 -6 239 -19z m-377 -437
c-4 -6 2 -7 17 -1 13 4 32 5 43 1 11 -4 29 -4 40 -1 22 7 78 6 100 -3 8 -3 16
-2 19 2 4 6 61 8 61 2 0 -1 18 -3 40 -5 79 -6 115 -22 156 -66 28 -32 30 -37
31 -125 1 -90 -28 -136 -107 -170 -33 -15 -77 -18 -252 -20 l-211 -2 0 191 1
192 31 6 c17 4 32 7 34 8 2 0 0 -3 -3 -9z"/>
<path d="M13457 13662 l-38 -3 3 -542 3 -541 63 -1 c35 -1 66 3 69 8 3 5 6
121 7 256 l1 246 283 1 c155 0 283 -2 283 -5 1 -3 2 -118 3 -255 l1 -250 63
-1 c34 -1 66 1 70 5 4 3 8 246 7 540 l0 535 -30 5 c-16 3 -48 4 -70 2 l-40 -4
0 -224 c0 -143 -3 -225 -10 -227 -9 -2 -520 -1 -552 2 -8 1 -11 62 -10 225 l2
224 -35 4 c-19 2 -52 2 -73 0z"/>
<path d="M14991 13648 c-5 -13 -25 -66 -45 -118 -20 -52 -41 -104 -46 -115 -5
-11 -34 -85 -65 -165 -30 -80 -59 -154 -64 -165 -5 -11 -22 -51 -36 -90 -45
-118 -116 -299 -125 -320 -17 -39 -39 -95 -37 -96 1 -1 35 -2 76 -3 70 -2 73
-1 83 24 5 14 15 36 20 50 6 14 12 30 13 35 2 6 20 57 42 115 l40 105 231 3
c203 2 232 0 232 -13 0 -8 4 -23 10 -33 9 -16 19 -43 77 -212 l26 -75 78 0
c44 0 79 3 79 8 0 8 -39 113 -60 162 -5 11 -21 52 -35 90 -37 96 -95 246 -105
270 -5 11 -20 49 -34 85 -13 36 -30 79 -37 95 -7 17 -13 32 -13 35 -4 14 -42
112 -63 158 -12 29 -23 56 -23 61 0 16 -44 116 -55 123 -5 4 -43 8 -83 8 -66
0 -73 -2 -81 -22z m102 -159 c2 -13 107 -305 127 -354 27 -67 39 -105 32 -108
-11 -5 -350 -2 -355 3 -5 5 70 215 99 277 8 17 14 35 14 39 0 4 14 46 32 91
28 77 45 94 51 52z"/>
<path d="M16512 13655 c-4 -5 -7 -251 -7 -545 l-1 -535 68 0 c40 0 68 4 69 10
1 5 2 220 2 477 1 256 5 470 9 474 6 5 491 10 554 5 8 -1 11 -135 11 -474 0
-260 2 -478 6 -483 3 -6 37 -10 74 -9 l68 1 0 537 c1 296 -2 541 -5 545 -8 11
-841 9 -848 -3z"/>
<path d="M19103 13662 c-18 -2 -33 -9 -34 -15 0 -7 -2 -252 -2 -545 l-2 -532
700 2 700 3 1 535 c0 294 -1 540 -3 545 -3 9 -24 10 -123 6 -13 -1 -15 -59
-15 -483 l0 -483 -240 0 -240 0 0 57 c1 31 -3 54 -8 51 -5 -3 -5 3 0 13 5 11
8 37 6 59 -2 22 -3 46 -3 53 0 29 0 103 0 115 -1 6 1 54 2 105 2 50 -1 92 -5
92 -5 0 -5 5 -1 12 11 17 11 108 1 108 -5 0 -5 5 -1 12 11 17 11 108 1 108 -5
0 -5 5 -1 12 10 17 11 108 1 108 -4 0 -3 8 2 18 20 38 -4 47 -116 43 l-21 -1
1 -240 c1 -132 -2 -240 -6 -240 -5 0 -5 -5 -2 -11 10 -15 11 -309 2 -309 -5 0
-5 -5 -1 -11 8 -14 8 -138 -1 -147 -4 -4 -112 -7 -241 -7 -202 0 -234 2 -235
15 0 8 -1 225 -1 483 0 257 -3 467 -7 468 -28 3 -82 3 -108 1z"/>
<path d="M20814 13662 c-27 -3 -33 -8 -36 -32 -3 -16 0 -34 6 -40 7 -7 6 -10
-1 -10 -6 0 -9 -8 -6 -19 4 -17 16 -19 161 -19 87 0 169 0 184 -1 l28 -1 2
-482 3 -482 55 -1 c30 -1 61 0 68 3 9 3 12 109 12 483 0 376 3 479 13 480 6 0
82 1 167 0 85 0 162 2 170 4 11 4 15 19 15 54 0 27 -3 52 -6 56 -7 6 -775 13
-835 7z"/>
<path d="M22139 13658 c-17 -6 -24 -25 -20 -50 0 -5 -4 -8 -11 -8 -6 0 -9 -3
-5 -6 3 -3 -7 -36 -22 -72 -36 -87 -44 -106 -45 -112 -1 -6 -43 -112 -62 -155
-36 -87 -78 -201 -76 -207 1 -5 -2 -8 -8 -8 -5 0 -10 -7 -10 -15 0 -8 -7 -29
-15 -47 -40 -90 -154 -392 -150 -397 3 -3 37 -6 75 -6 l69 -1 62 168 62 168
230 -2 230 -3 27 -75 c15 -41 29 -82 32 -90 3 -8 16 -44 28 -80 12 -36 26 -69
32 -75 7 -8 158 -16 158 -9 0 4 -71 190 -80 209 -5 11 -19 45 -30 75 -11 30
-25 64 -29 75 -5 11 -41 103 -81 205 -39 102 -82 212 -95 245 -37 96 -38 100
-37 108 1 4 -2 7 -8 7 -5 0 -10 7 -10 15 0 25 -53 145 -64 146 -78 4 -131 3
-147 -3z m123 -263 c48 -131 69 -189 72 -200 6 -20 18 -50 27 -67 5 -10 9 -27
9 -37 0 -11 5 -23 10 -26 6 -3 10 -14 10 -23 0 -16 -17 -17 -180 -17 -196 0
-191 -2 -166 57 8 18 24 60 36 93 12 33 26 69 31 80 9 22 33 87 54 150 7 22
21 58 30 80 20 46 12 57 67 -90z"/>
<path d="M23680 13660 l-45 -5 0 -540 0 -540 60 0 c33 0 65 1 70 2 7 2 10 72
9 191 l0 187 87 89 c48 48 91 86 96 83 5 -3 47 -60 93 -127 47 -66 131 -186
188 -266 56 -80 102 -148 102 -152 0 -8 173 -10 180 -1 3 3 -5 19 -17 35 -13
16 -49 65 -80 109 -31 44 -60 82 -63 85 -3 3 -21 28 -40 55 -19 28 -38 52 -42
53 -4 2 -8 10 -8 17 0 7 -4 15 -8 17 -4 2 -23 25 -42 53 -19 27 -43 58 -52 69
-10 11 -20 27 -23 37 -3 9 -12 20 -20 23 -8 3 -15 12 -15 21 0 8 -4 15 -8 15
-4 0 -16 14 -26 31 l-18 31 43 41 c66 61 294 275 355 333 30 29 54 53 54 55 0
3 -82 3 -170 0 -8 -1 -137 -120 -285 -266 -149 -145 -272 -265 -275 -265 -3 0
-5 118 -5 262 l0 262 -25 5 c-14 4 -45 4 -70 1z"/>
<path d="M24880 13662 l-45 -3 2 -522 c1 -287 2 -532 2 -544 1 -22 5 -23 71
-23 l70 0 2 223 3 222 179 2 c240 2 311 20 394 100 40 40 65 84 78 143 10 46
11 161 2 167 -5 2 -8 14 -8 27 0 35 -54 111 -102 143 -56 38 -96 52 -177 59
-73 7 -400 11 -471 6z m470 -136 c61 -18 97 -39 120 -72 27 -41 32 -58 30
-133 -1 -80 -30 -126 -100 -158 -48 -21 -72 -24 -253 -26 -132 -2 -158 0 -161
13 -3 8 -4 99 -4 201 l0 186 172 -2 c94 -1 182 -5 196 -9z"/>
<path d="M26182 13620 c-12 -28 -22 -55 -22 -60 0 -6 -4 -18 -10 -28 -21 -37
-78 -191 -72 -196 3 -3 0 -6 -6 -6 -7 0 -12 -6 -12 -13 0 -14 -153 -411 -170
-439 -5 -10 -10 -23 -10 -30 0 -7 -6 -24 -13 -38 -7 -14 -26 -61 -42 -105 -16
-44 -33 -86 -38 -92 -21 -28 0 -40 65 -38 69 1 88 8 88 32 0 8 6 29 14 46 8
18 32 82 54 142 l40 110 229 3 230 3 52 -148 c30 -81 54 -154 55 -161 1 -8 7
-17 14 -21 9 -5 102 -7 148 -2 9 1 -31 116 -96 276 -4 11 -22 58 -40 105 -18
47 -36 94 -41 105 -5 11 -18 47 -30 80 -12 33 -25 64 -30 69 -5 6 -9 19 -9 31
0 12 -4 25 -9 31 -5 5 -16 29 -24 54 -19 55 -63 171 -87 225 -9 22 -23 56 -29
77 l-12 36 -83 1 -82 1 -22 -50z m112 -137 c10 -27 21 -57 26 -68 5 -11 18
-47 30 -80 11 -33 23 -67 27 -75 3 -8 7 -19 9 -25 1 -5 15 -41 29 -80 37 -96
45 -124 37 -128 -14 -7 -351 -2 -358 5 -4 4 -2 13 3 20 6 7 23 49 38 93 15 44
34 94 41 110 7 17 23 59 35 95 12 36 25 70 29 75 4 6 13 31 21 58 7 26 14 47
15 47 1 0 9 -21 18 -47z"/>
<path d="M27129 13662 l-36 -3 1 -542 1 -542 60 0 c33 -1 65 0 70 2 11 3 13
1068 2 1079 -7 7 -50 10 -98 6z"/>
<path d="M27678 13662 c-40 -3 -50 -20 -37 -59 5 -12 5 -25 0 -27 -9 -6 -7
-68 2 -83 3 -5 2 -15 -3 -23 -5 -8 -5 -21 1 -31 5 -10 5 -20 1 -23 -10 -6 -9
-67 1 -83 3 -5 2 -15 -3 -23 -5 -8 -5 -21 1 -31 5 -10 5 -20 1 -23 -10 -6 -8
-73 1 -83 4 -3 3 -13 -1 -22 -7 -15 -8 -28 -2 -96 1 -16 1 -33 0 -37 -6 -21
-4 -68 3 -68 5 0 5 -5 2 -11 -10 -14 -10 -192 -1 -207 4 -7 4 -12 -1 -12 -9 0
-9 -57 0 -66 3 -3 2 -16 -3 -28 -14 -39 3 -51 74 -51 l66 -1 -2 61 c-1 33 2
66 6 73 4 7 4 12 -1 12 -9 0 -8 94 1 109 4 5 2 12 -2 15 -8 5 -9 29 -2 61 1 6
1 12 0 15 -6 16 -4 60 3 60 4 0 5 5 1 12 -10 15 -11 68 -2 68 4 0 5 6 2 13 -4
10 52 13 281 13 l285 0 1 -30 c0 -17 2 -132 2 -256 l2 -225 60 0 c33 -1 65 2
70 6 6 5 10 196 9 540 l0 533 -24 6 c-13 3 -44 3 -69 0 l-46 -5 -2 -210 c0
-115 -2 -217 -2 -225 -1 -13 -39 -15 -281 -14 -154 0 -282 3 -286 6 -8 9 -8
363 0 376 3 6 2 13 -2 16 -5 3 -7 17 -4 31 2 14 0 25 -4 26 -37 3 -64 4 -96 1z"/>
<path d="M28903 13662 c-19 -3 -21 -9 -19 -68 1 -35 -2 -64 -7 -64 -4 0 -5 -5
-1 -12 11 -17 11 -148 1 -148 -5 0 -5 -5 -1 -12 11 -17 11 -148 1 -148 -5 0
-5 -5 -1 -12 11 -17 11 -308 1 -308 -5 0 -5 -5 -1 -11 10 -17 12 -169 1 -162
-5 3 -5 -2 0 -13 5 -11 8 -45 8 -76 l-1 -58 90 0 91 0 70 122 c39 67 87 154
109 193 21 38 47 82 57 97 11 14 19 31 19 37 0 6 5 11 10 11 6 0 10 6 10 13 0
7 20 45 44 85 25 39 47 81 51 92 3 11 11 20 16 20 5 0 9 4 9 9 0 8 124 227
134 238 1 2 2 -199 1 -445 0 -246 1 -453 3 -459 3 -9 26 -13 71 -13 l68 0 0
545 0 545 -49 1 c-62 1 -105 1 -120 0 -7 -1 -22 -16 -32 -34 -10 -17 -43 -75
-74 -127 -30 -52 -63 -110 -73 -127 -11 -18 -27 -48 -37 -65 -11 -18 -76 -131
-145 -251 -70 -121 -127 -223 -127 -228 0 -5 -4 -9 -10 -9 -5 0 -10 -6 -10
-12 0 -7 -9 -24 -19 -37 -18 -23 -18 -12 -18 428 0 248 -2 453 -4 456 -6 6
-89 11 -116 7z"/>
</g>
</svg>
